<?xml version="1.0" encoding="iso-8859-1"?>
<!-- Uploaded to: SVG Repo, www.svgrepo.com, Generator: SVG Repo Mixer Tools -->
<svg height="800px" width="800px" version="1.1" id="Layer_1" xmlns="http://www.w3.org/2000/svg" xmlns:xlink="http://www.w3.org/1999/xlink" 
	 viewBox="0 0 512 512" xml:space="preserve">
<path style="fill:#C2DFF6;" d="M104.456,253.944c-4.367,0-8.734-1.667-12.066-5.001c-6.666-6.661-6.666-17.472,0-24.133
	L295.134,22.067c6.666-6.666,17.467-6.666,24.133,0c6.666,6.661,6.666,17.472,0,24.133L116.522,248.945
	C113.188,252.278,108.823,253.944,104.456,253.944z"/>
<path style="fill:#00B6BD;" d="M68.267,341.333C30.622,341.333,0,310.711,0,273.067S30.622,204.8,68.267,204.8
	s68.267,30.622,68.267,68.267S105.911,341.333,68.267,341.333z M68.267,238.933c-18.822,0-34.133,15.311-34.133,34.133
	c0,18.822,15.311,34.133,34.133,34.133s34.133-15.311,34.133-34.133C102.4,254.244,87.089,238.933,68.267,238.933z"/>
<path style="fill:#FF5023;" d="M512,187.733c0-9.425-7.641-17.067-17.067-17.067h-307.2c-9.425,0-17.067,7.641-17.067,17.067v307.2
	c0,9.425,7.641,17.067,17.067,17.067h307.2c9.425,0,17.067-7.641,17.067-17.067V187.733z"/>
<path style="fill:#CD2A00;" d="M494.933,170.667h-153.6V512h153.6c9.422,0,17.067-7.645,17.067-17.067v-307.2
	C512,178.311,504.355,170.667,494.933,170.667z"/>
<g>
	<path style="fill:#FFDA44;" d="M204.8,221.867c0-9.422,7.645-17.067,17.067-17.067H256c9.422,0,17.067,7.645,17.067,17.067
		c0,9.422-7.645,17.067-17.067,17.067h-17.067V256c0,9.422-7.645,17.067-17.067,17.067c-9.422,0-17.067-7.645-17.067-17.067V221.867
		z"/>
	<path style="fill:#FFDA44;" d="M204.8,324.267c0-9.422,7.645-17.067,17.067-17.067c9.422,0,17.067,7.645,17.067,17.067V358.4
		c0,9.422-7.645,17.067-17.067,17.067c-9.422,0-17.067-7.645-17.067-17.067V324.267z"/>
	<path style="fill:#FFDA44;" d="M256,477.867h-34.133c-9.422,0-17.067-7.645-17.067-17.067v-34.133
		c0-9.422,7.645-17.067,17.067-17.067c9.422,0,17.067,7.645,17.067,17.067v17.067H256c9.422,0,17.067,7.645,17.067,17.067
		C273.067,470.222,265.422,477.867,256,477.867z"/>
	<path style="fill:#FFDA44;" d="M358.4,477.867h-34.133c-9.422,0-17.067-7.645-17.067-17.067c0-9.422,7.645-17.067,17.067-17.067
		H358.4c9.422,0,17.067,7.645,17.067,17.067C375.467,470.222,367.822,477.867,358.4,477.867z"/>
	<path style="fill:#FFDA44;" d="M358.4,238.933h-34.133c-9.422,0-17.067-7.645-17.067-17.067c0-9.422,7.645-17.067,17.067-17.067
		H358.4c9.422,0,17.067,7.645,17.067,17.067C375.467,231.289,367.822,238.933,358.4,238.933z"/>
</g>
<g>
	<path style="fill:#FFA733;" d="M477.867,460.8c0,9.422-7.645,17.067-17.067,17.067h-34.133c-9.422,0-17.067-7.645-17.067-17.067
		c0-9.422,7.645-17.067,17.067-17.067h17.067v-17.067c0-9.422,7.645-17.067,17.067-17.067c9.422,0,17.067,7.645,17.067,17.067V460.8
		z"/>
	<path style="fill:#FFA733;" d="M477.867,358.4c0,9.422-7.645,17.067-17.067,17.067c-9.422,0-17.067-7.645-17.067-17.067v-34.133
		c0-9.422,7.645-17.067,17.067-17.067c9.422,0,17.067,7.645,17.067,17.067V358.4z"/>
	<path style="fill:#FFA733;" d="M477.867,256c0,9.422-7.645,17.067-17.067,17.067c-9.422,0-17.067-7.645-17.067-17.067v-17.067
		h-17.067c-9.422,0-17.067-7.645-17.067-17.067c0-9.422,7.645-17.067,17.067-17.067H460.8c9.422,0,17.067,7.645,17.067,17.067V256z"
		/>
	<path style="fill:#FFA733;" d="M358.4,204.8h-17.067v34.133H358.4c9.422,0,17.067-7.645,17.067-17.067
		C375.467,212.445,367.822,204.8,358.4,204.8z"/>
	<path style="fill:#FFA733;" d="M358.4,443.733h-17.067v34.133H358.4c9.422,0,17.067-7.645,17.067-17.067
		C375.467,451.378,367.822,443.733,358.4,443.733z"/>
</g>
<path style="fill:#E6F4FF;" d="M307.2,324.267c-4.367,0-8.734-1.667-12.066-5.001L92.389,116.522
	c-6.666-6.661-6.666-17.472,0-24.133c6.666-6.666,17.467-6.666,24.133,0l202.744,202.744c6.666,6.661,6.666,17.472,0,24.133
	C315.934,322.6,311.567,324.267,307.2,324.267z"/>
<path style="fill:#00D7DF;" d="M68.267,136.533C30.622,136.533,0,105.911,0,68.267S30.622,0,68.267,0s68.267,30.622,68.267,68.267
	S105.911,136.533,68.267,136.533z M68.267,34.133c-18.822,0-34.133,15.311-34.133,34.133S49.444,102.4,68.267,102.4
	S102.4,87.089,102.4,68.267S87.089,34.133,68.267,34.133z"/>
</svg>